<svg width="152" height="31" viewBox="0 0 352 63" fill="none" xmlns="http://www.w3.org/2000/svg">
    <g clip-path="url(#clip0_5428_305685)">
        <path d="M260.614 62.5191C252.279 63.2334 244.634 62.4698 238.765 57.1248C237.186 55.6716 235.731 53.8735 234.424 51.6813C231.934 47.4694 227.988 45.7452 221.157 45.7452C221.157 45.7452 214.424 45.7205 212.55 45.7452C211.243 45.7698 208.358 45.3018 205.078 52.6419C202.908 57.5189 199.11 60.4254 194.252 62.125C191.465 63.0856 189.64 62.3713 189.69 58.8983C189.813 51.4104 189.936 43.8732 189.788 36.336C189.69 32.6413 191.12 31.6314 194.647 31.6561C203.302 31.73 229.443 31.6561 233.882 31.6314C235.509 31.6068 236.496 31.6314 237.778 31.6068C238.099 31.6068 238.962 31.4837 239.307 31.4344C241.724 31.0157 244.658 28.5279 244.461 24.6608C244.289 21.1632 242.02 19.1927 239.307 18.6508C238.789 18.5522 238.247 18.503 237.679 18.4783C231.687 18.3552 225.694 18.3552 219.702 18.3059C216.397 18.2813 213.093 18.2567 209.788 18.1828C206.163 18.1089 203.401 17.0497 201.527 15.1531C199.677 13.2811 198.691 10.6456 198.592 7.36964C198.469 3.67495 200.171 2.6897 202.982 2.56654C203.155 2.54191 203.352 2.54191 203.524 2.54191C208.703 2.51728 213.882 2.46802 219.036 2.46802C220.787 2.46802 236.15 2.51728 236.274 2.51728C248.604 2.96064 257.063 6.13808 260.392 17.8133C260.565 18.3798 260.712 18.9463 260.836 19.5621C263.031 29.8826 259.258 38.6514 248.801 43.1096C253.364 48.5778 257.605 53.7257 261.896 58.8244C263.647 60.8934 263.968 62.2481 260.614 62.5191Z"
              fill="#123351"/>
        <path d="M135.115 47.3217C135.091 47.297 134.77 47.2724 134.647 47.2724H98.8397C97.6313 47.2724 96.6695 46.2625 96.6695 45.0063V18.9464C96.6695 14.4143 94.894 10.3255 92.0087 7.36975C89.1234 4.414 85.153 2.56665 80.7634 2.56665C79.555 2.56665 78.5933 3.57653 78.5933 4.8081V60.4994C78.5933 61.731 79.5797 62.7409 80.7634 62.7409C80.7634 62.7409 113.587 63.1596 124.635 62.864C125.818 62.8394 127.027 62.5684 128.013 62.199C129.961 61.5339 131.589 60.2531 132.995 58.8245C135.288 56.4599 136.743 53.2332 136.866 49.6616V49.4892C136.817 48.4793 136.127 47.5434 135.115 47.3217Z"
              fill="#123351"/>
        <path d="M194.967 13.3551C194.745 12.2467 194.4 11.1876 193.932 10.227C193.266 8.79836 192.353 7.51754 191.268 6.43376C190.208 5.37461 188.999 4.48789 187.618 3.87211C186.311 3.18243 185.448 2.88686 183.919 2.66517C183.599 2.61591 182.242 2.59128 181.971 2.56665H172.945H150.504C150.504 2.56665 141.182 2.56665 141.01 2.59128H130.06C129.543 2.59128 129.074 2.81296 128.753 3.1578C128.433 3.47801 128.211 3.946 128.211 4.46326C128.211 5.34998 128.285 6.21208 128.458 7.04954C128.679 8.15795 129.025 9.21709 129.493 10.1777C130.159 11.6063 131.072 12.8872 132.157 13.9709C133.217 15.0301 134.425 15.9168 135.806 16.5326C137.113 17.2223 137.977 17.5178 139.506 17.7395C139.999 17.8134 150.48 17.838 150.48 17.838C151.663 17.9119 152.625 18.9218 152.625 20.1041V60.4255C152.625 61.6817 153.661 62.7162 154.918 62.7162H168.531C169.789 62.7162 170.825 61.6817 170.825 60.4255V20.1288C170.825 18.9218 171.762 17.9366 172.97 17.8627C172.97 17.8627 182.538 17.8627 182.933 17.838H193.414C193.932 17.838 194.4 17.6164 194.721 17.2715C195.041 16.9513 195.263 16.4833 195.263 15.9661C195.214 15.0793 195.14 14.2172 194.967 13.3551Z"
              fill="#123351"/>
        <path d="M348.332 58.0606C342.61 48.4298 337.012 39.3655 327.148 22.961C326.877 22.4684 319.355 9.41382 319.035 8.89656C316.519 4.88166 313.018 2.71411 309.59 2.71411H309.195C305.743 2.71411 302.29 4.95556 299.75 8.89656C299.43 9.41382 294.719 17.616 292.845 20.7688C289.417 26.5326 276.47 48.3312 270.774 57.5926C269.96 58.8981 267.889 61.4843 271.415 62.3464C277.161 63.7504 282.784 62.3464 287.198 58.8242C289.097 57.3709 290.774 55.4251 292.155 53.159C293.807 50.3756 295.41 47.5184 297.037 44.7351C300.687 38.5773 304.288 32.3702 308.184 25.8183C308.554 25.1286 308.998 24.4389 309.392 23.7492C309.787 24.4389 310.256 25.1286 310.601 25.8183C314.497 32.3455 318.196 38.5526 321.846 44.6858C323.474 47.4691 324.978 50.351 326.606 53.159C327.987 55.4497 329.688 57.3709 331.587 58.8242C336.001 62.3464 341.599 63.6273 347.37 62.3464C350.995 61.509 349.145 59.3907 348.332 58.0606Z"
              fill="#123351"/>
        <path d="M70.4804 6.48299C70.5297 2.07399 68.2856 2.12326 65.203 3.13314C58.8899 5.2268 54.8209 10.7196 54.5496 17.9612C54.3277 23.1091 54.451 28.257 54.4016 33.405C54.3523 43.5777 51.7876 46.2871 41.6767 46.829C40.9123 46.8537 38.7914 46.9768 36.5966 46.9768C34.4018 46.9522 32.281 46.8537 31.5165 46.829C21.4057 46.2625 18.841 43.5531 18.7916 33.405C18.7423 28.257 18.8656 23.1091 18.6437 17.9612C18.3724 10.7196 14.3034 5.2268 7.99028 3.13314C4.9077 2.12326 2.63892 2.07399 2.7129 6.48299C2.8362 15.966 2.34299 25.4983 2.76222 34.9568C3.42806 49.5385 8.75476 57.1988 22.1455 60.6964C26.9543 61.9526 30.1849 62.5191 36.7199 62.5438C43.2057 62.5684 46.2143 62.2236 51.0231 60.992C64.4139 57.4944 69.7899 49.5385 70.4557 34.9568C70.8503 25.4983 70.3817 15.966 70.4804 6.48299Z"
              fill="#123351"/>
        <path d="M307.149 38.4543L297.038 52.3217C295.608 54.2922 297.014 57.0509 299.455 57.0509H319.677C322.118 57.0509 323.524 54.2922 322.093 52.3217L311.983 38.4543C310.799 36.8286 308.357 36.8286 307.149 38.4543Z"
              fill="#D82222"/>
    </g>
    <defs>
        <clipPath id="clip0_5428_305685">
            <rect width="352" height="63" fill="white"/>
        </clipPath>
    </defs>
</svg>
